<?xml version="1.0" encoding="utf-8" standalone="no"?>
<!DOCTYPE svg PUBLIC "-//W3C//DTD SVG 1.1//EN"
  "http://www.w3.org/Graphics/SVG/1.1/DTD/svg11.dtd">
<svg xmlns:xlink="http://www.w3.org/1999/xlink" width="432pt" height="288pt" viewBox="0 0 432 288" xmlns="http://www.w3.org/2000/svg" version="1.1">
 <metadata>
  <rdf:RDF xmlns:dc="http://purl.org/dc/elements/1.1/" xmlns:cc="http://creativecommons.org/ns#" xmlns:rdf="http://www.w3.org/1999/02/22-rdf-syntax-ns#">
   <cc:Work>
    <dc:type rdf:resource="http://purl.org/dc/dcmitype/StillImage"/>
    <dc:date>2022-05-21T11:42:55.825159</dc:date>
    <dc:format>image/svg+xml</dc:format>
    <dc:creator>
     <cc:Agent>
      <dc:title>Matplotlib v3.5.1, https://matplotlib.org/</dc:title>
     </cc:Agent>
    </dc:creator>
   </cc:Work>
  </rdf:RDF>
 </metadata>
 <defs>
  <style type="text/css">*{stroke-linejoin: round; stroke-linecap: butt}</style>
 </defs>
 <g id="figure_1">
  <g id="patch_1">
   <path d="M 0 288 
L 432 288 
L 432 0 
L 0 0 
L 0 288 
z
" style="fill: none"/>
  </g>
  <g id="axes_1">
   <g id="patch_2">
    <path d="M 54 252 
L 388.8 252 
L 388.8 34.56 
L 54 34.56 
z
" style="fill: #ffffff"/>
   </g>
   <g id="matplotlib.axis_1">
    <g id="xtick_1">
     <g id="line2d_1">
      <path d="M 69.218182 252 
L 69.218182 34.56 
" clip-path="url(#pc7ce4d0e1a)" style="fill: none; stroke: #b0b0b0; stroke-width: 0.8; stroke-linecap: square"/>
     </g>
     <g id="line2d_2">
      <defs>
       <path id="mcd4ceaffd6" d="M 0 0 
L 0 3.5 
" style="stroke: #000000; stroke-width: 0.8"/>
      </defs>
      <g>
       <use xlink:href="#mcd4ceaffd6" x="69.218182" y="252" style="stroke: #000000; stroke-width: 0.8"/>
      </g>
     </g>
     <g id="text_1">
      <!-- 0 -->
      <g transform="translate(66.036932 266.598437)scale(0.1 -0.1)">
       <defs>
        <path id="DejaVuSans-30" d="M 2034 4250 
Q 1547 4250 1301 3770 
Q 1056 3291 1056 2328 
Q 1056 1369 1301 889 
Q 1547 409 2034 409 
Q 2525 409 2770 889 
Q 3016 1369 3016 2328 
Q 3016 3291 2770 3770 
Q 2525 4250 2034 4250 
z
M 2034 4750 
Q 2819 4750 3233 4129 
Q 3647 3509 3647 2328 
Q 3647 1150 3233 529 
Q 2819 -91 2034 -91 
Q 1250 -91 836 529 
Q 422 1150 422 2328 
Q 422 3509 836 4129 
Q 1250 4750 2034 4750 
z
" transform="scale(0.015625)"/>
       </defs>
       <use xlink:href="#DejaVuSans-30"/>
      </g>
     </g>
    </g>
    <g id="xtick_2">
     <g id="line2d_3">
      <path d="M 124.557025 252 
L 124.557025 34.56 
" clip-path="url(#pc7ce4d0e1a)" style="fill: none; stroke: #b0b0b0; stroke-width: 0.8; stroke-linecap: square"/>
     </g>
     <g id="line2d_4">
      <g>
       <use xlink:href="#mcd4ceaffd6" x="124.557025" y="252" style="stroke: #000000; stroke-width: 0.8"/>
      </g>
     </g>
     <g id="text_2">
      <!-- 50 -->
      <g transform="translate(118.194525 266.598437)scale(0.1 -0.1)">
       <defs>
        <path id="DejaVuSans-35" d="M 691 4666 
L 3169 4666 
L 3169 4134 
L 1269 4134 
L 1269 2991 
Q 1406 3038 1543 3061 
Q 1681 3084 1819 3084 
Q 2600 3084 3056 2656 
Q 3513 2228 3513 1497 
Q 3513 744 3044 326 
Q 2575 -91 1722 -91 
Q 1428 -91 1123 -41 
Q 819 9 494 109 
L 494 744 
Q 775 591 1075 516 
Q 1375 441 1709 441 
Q 2250 441 2565 725 
Q 2881 1009 2881 1497 
Q 2881 1984 2565 2268 
Q 2250 2553 1709 2553 
Q 1456 2553 1204 2497 
Q 953 2441 691 2322 
L 691 4666 
z
" transform="scale(0.015625)"/>
       </defs>
       <use xlink:href="#DejaVuSans-35"/>
       <use xlink:href="#DejaVuSans-30" x="63.623047"/>
      </g>
     </g>
    </g>
    <g id="xtick_3">
     <g id="line2d_5">
      <path d="M 179.895868 252 
L 179.895868 34.56 
" clip-path="url(#pc7ce4d0e1a)" style="fill: none; stroke: #b0b0b0; stroke-width: 0.8; stroke-linecap: square"/>
     </g>
     <g id="line2d_6">
      <g>
       <use xlink:href="#mcd4ceaffd6" x="179.895868" y="252" style="stroke: #000000; stroke-width: 0.8"/>
      </g>
     </g>
     <g id="text_3">
      <!-- 100 -->
      <g transform="translate(170.352118 266.598437)scale(0.1 -0.1)">
       <defs>
        <path id="DejaVuSans-31" d="M 794 531 
L 1825 531 
L 1825 4091 
L 703 3866 
L 703 4441 
L 1819 4666 
L 2450 4666 
L 2450 531 
L 3481 531 
L 3481 0 
L 794 0 
L 794 531 
z
" transform="scale(0.015625)"/>
       </defs>
       <use xlink:href="#DejaVuSans-31"/>
       <use xlink:href="#DejaVuSans-30" x="63.623047"/>
       <use xlink:href="#DejaVuSans-30" x="127.246094"/>
      </g>
     </g>
    </g>
    <g id="xtick_4">
     <g id="line2d_7">
      <path d="M 235.234711 252 
L 235.234711 34.56 
" clip-path="url(#pc7ce4d0e1a)" style="fill: none; stroke: #b0b0b0; stroke-width: 0.8; stroke-linecap: square"/>
     </g>
     <g id="line2d_8">
      <g>
       <use xlink:href="#mcd4ceaffd6" x="235.234711" y="252" style="stroke: #000000; stroke-width: 0.8"/>
      </g>
     </g>
     <g id="text_4">
      <!-- 150 -->
      <g transform="translate(225.690961 266.598437)scale(0.1 -0.1)">
       <use xlink:href="#DejaVuSans-31"/>
       <use xlink:href="#DejaVuSans-35" x="63.623047"/>
       <use xlink:href="#DejaVuSans-30" x="127.246094"/>
      </g>
     </g>
    </g>
    <g id="xtick_5">
     <g id="line2d_9">
      <path d="M 290.573554 252 
L 290.573554 34.56 
" clip-path="url(#pc7ce4d0e1a)" style="fill: none; stroke: #b0b0b0; stroke-width: 0.8; stroke-linecap: square"/>
     </g>
     <g id="line2d_10">
      <g>
       <use xlink:href="#mcd4ceaffd6" x="290.573554" y="252" style="stroke: #000000; stroke-width: 0.8"/>
      </g>
     </g>
     <g id="text_5">
      <!-- 200 -->
      <g transform="translate(281.029804 266.598437)scale(0.1 -0.1)">
       <defs>
        <path id="DejaVuSans-32" d="M 1228 531 
L 3431 531 
L 3431 0 
L 469 0 
L 469 531 
Q 828 903 1448 1529 
Q 2069 2156 2228 2338 
Q 2531 2678 2651 2914 
Q 2772 3150 2772 3378 
Q 2772 3750 2511 3984 
Q 2250 4219 1831 4219 
Q 1534 4219 1204 4116 
Q 875 4013 500 3803 
L 500 4441 
Q 881 4594 1212 4672 
Q 1544 4750 1819 4750 
Q 2544 4750 2975 4387 
Q 3406 4025 3406 3419 
Q 3406 3131 3298 2873 
Q 3191 2616 2906 2266 
Q 2828 2175 2409 1742 
Q 1991 1309 1228 531 
z
" transform="scale(0.015625)"/>
       </defs>
       <use xlink:href="#DejaVuSans-32"/>
       <use xlink:href="#DejaVuSans-30" x="63.623047"/>
       <use xlink:href="#DejaVuSans-30" x="127.246094"/>
      </g>
     </g>
    </g>
    <g id="xtick_6">
     <g id="line2d_11">
      <path d="M 345.912397 252 
L 345.912397 34.56 
" clip-path="url(#pc7ce4d0e1a)" style="fill: none; stroke: #b0b0b0; stroke-width: 0.8; stroke-linecap: square"/>
     </g>
     <g id="line2d_12">
      <g>
       <use xlink:href="#mcd4ceaffd6" x="345.912397" y="252" style="stroke: #000000; stroke-width: 0.8"/>
      </g>
     </g>
     <g id="text_6">
      <!-- 250 -->
      <g transform="translate(336.368647 266.598437)scale(0.1 -0.1)">
       <use xlink:href="#DejaVuSans-32"/>
       <use xlink:href="#DejaVuSans-35" x="63.623047"/>
       <use xlink:href="#DejaVuSans-30" x="127.246094"/>
      </g>
     </g>
    </g>
   </g>
   <g id="matplotlib.axis_2">
    <g id="ytick_1">
     <g id="line2d_13">
      <path d="M 54 241.446233 
L 388.8 241.446233 
" clip-path="url(#pc7ce4d0e1a)" style="fill: none; stroke: #b0b0b0; stroke-width: 0.8; stroke-linecap: square"/>
     </g>
     <g id="line2d_14">
      <defs>
       <path id="m9b587a40dd" d="M 0 0 
L -3.5 0 
" style="stroke: #000000; stroke-width: 0.8"/>
      </defs>
      <g>
       <use xlink:href="#m9b587a40dd" x="54" y="241.446233" style="stroke: #000000; stroke-width: 0.8"/>
      </g>
     </g>
     <g id="text_7">
      <!-- 50 -->
      <g transform="translate(34.275 245.245452)scale(0.1 -0.1)">
       <use xlink:href="#DejaVuSans-35"/>
       <use xlink:href="#DejaVuSans-30" x="63.623047"/>
      </g>
     </g>
    </g>
    <g id="ytick_2">
     <g id="line2d_15">
      <path d="M 54 202.026785 
L 388.8 202.026785 
" clip-path="url(#pc7ce4d0e1a)" style="fill: none; stroke: #b0b0b0; stroke-width: 0.8; stroke-linecap: square"/>
     </g>
     <g id="line2d_16">
      <g>
       <use xlink:href="#m9b587a40dd" x="54" y="202.026785" style="stroke: #000000; stroke-width: 0.8"/>
      </g>
     </g>
     <g id="text_8">
      <!-- 60 -->
      <g transform="translate(34.275 205.826004)scale(0.1 -0.1)">
       <defs>
        <path id="DejaVuSans-36" d="M 2113 2584 
Q 1688 2584 1439 2293 
Q 1191 2003 1191 1497 
Q 1191 994 1439 701 
Q 1688 409 2113 409 
Q 2538 409 2786 701 
Q 3034 994 3034 1497 
Q 3034 2003 2786 2293 
Q 2538 2584 2113 2584 
z
M 3366 4563 
L 3366 3988 
Q 3128 4100 2886 4159 
Q 2644 4219 2406 4219 
Q 1781 4219 1451 3797 
Q 1122 3375 1075 2522 
Q 1259 2794 1537 2939 
Q 1816 3084 2150 3084 
Q 2853 3084 3261 2657 
Q 3669 2231 3669 1497 
Q 3669 778 3244 343 
Q 2819 -91 2113 -91 
Q 1303 -91 875 529 
Q 447 1150 447 2328 
Q 447 3434 972 4092 
Q 1497 4750 2381 4750 
Q 2619 4750 2861 4703 
Q 3103 4656 3366 4563 
z
" transform="scale(0.015625)"/>
       </defs>
       <use xlink:href="#DejaVuSans-36"/>
       <use xlink:href="#DejaVuSans-30" x="63.623047"/>
      </g>
     </g>
    </g>
    <g id="ytick_3">
     <g id="line2d_17">
      <path d="M 54 162.607338 
L 388.8 162.607338 
" clip-path="url(#pc7ce4d0e1a)" style="fill: none; stroke: #b0b0b0; stroke-width: 0.8; stroke-linecap: square"/>
     </g>
     <g id="line2d_18">
      <g>
       <use xlink:href="#m9b587a40dd" x="54" y="162.607338" style="stroke: #000000; stroke-width: 0.8"/>
      </g>
     </g>
     <g id="text_9">
      <!-- 70 -->
      <g transform="translate(34.275 166.406557)scale(0.1 -0.1)">
       <defs>
        <path id="DejaVuSans-37" d="M 525 4666 
L 3525 4666 
L 3525 4397 
L 1831 0 
L 1172 0 
L 2766 4134 
L 525 4134 
L 525 4666 
z
" transform="scale(0.015625)"/>
       </defs>
       <use xlink:href="#DejaVuSans-37"/>
       <use xlink:href="#DejaVuSans-30" x="63.623047"/>
      </g>
     </g>
    </g>
    <g id="ytick_4">
     <g id="line2d_19">
      <path d="M 54 123.18789 
L 388.8 123.18789 
" clip-path="url(#pc7ce4d0e1a)" style="fill: none; stroke: #b0b0b0; stroke-width: 0.8; stroke-linecap: square"/>
     </g>
     <g id="line2d_20">
      <g>
       <use xlink:href="#m9b587a40dd" x="54" y="123.18789" style="stroke: #000000; stroke-width: 0.8"/>
      </g>
     </g>
     <g id="text_10">
      <!-- 80 -->
      <g transform="translate(34.275 126.987109)scale(0.1 -0.1)">
       <defs>
        <path id="DejaVuSans-38" d="M 2034 2216 
Q 1584 2216 1326 1975 
Q 1069 1734 1069 1313 
Q 1069 891 1326 650 
Q 1584 409 2034 409 
Q 2484 409 2743 651 
Q 3003 894 3003 1313 
Q 3003 1734 2745 1975 
Q 2488 2216 2034 2216 
z
M 1403 2484 
Q 997 2584 770 2862 
Q 544 3141 544 3541 
Q 544 4100 942 4425 
Q 1341 4750 2034 4750 
Q 2731 4750 3128 4425 
Q 3525 4100 3525 3541 
Q 3525 3141 3298 2862 
Q 3072 2584 2669 2484 
Q 3125 2378 3379 2068 
Q 3634 1759 3634 1313 
Q 3634 634 3220 271 
Q 2806 -91 2034 -91 
Q 1263 -91 848 271 
Q 434 634 434 1313 
Q 434 1759 690 2068 
Q 947 2378 1403 2484 
z
M 1172 3481 
Q 1172 3119 1398 2916 
Q 1625 2713 2034 2713 
Q 2441 2713 2670 2916 
Q 2900 3119 2900 3481 
Q 2900 3844 2670 4047 
Q 2441 4250 2034 4250 
Q 1625 4250 1398 4047 
Q 1172 3844 1172 3481 
z
" transform="scale(0.015625)"/>
       </defs>
       <use xlink:href="#DejaVuSans-38"/>
       <use xlink:href="#DejaVuSans-30" x="63.623047"/>
      </g>
     </g>
    </g>
    <g id="ytick_5">
     <g id="line2d_21">
      <path d="M 54 83.768443 
L 388.8 83.768443 
" clip-path="url(#pc7ce4d0e1a)" style="fill: none; stroke: #b0b0b0; stroke-width: 0.8; stroke-linecap: square"/>
     </g>
     <g id="line2d_22">
      <g>
       <use xlink:href="#m9b587a40dd" x="54" y="83.768443" style="stroke: #000000; stroke-width: 0.8"/>
      </g>
     </g>
     <g id="text_11">
      <!-- 90 -->
      <g transform="translate(34.275 87.567662)scale(0.1 -0.1)">
       <defs>
        <path id="DejaVuSans-39" d="M 703 97 
L 703 672 
Q 941 559 1184 500 
Q 1428 441 1663 441 
Q 2288 441 2617 861 
Q 2947 1281 2994 2138 
Q 2813 1869 2534 1725 
Q 2256 1581 1919 1581 
Q 1219 1581 811 2004 
Q 403 2428 403 3163 
Q 403 3881 828 4315 
Q 1253 4750 1959 4750 
Q 2769 4750 3195 4129 
Q 3622 3509 3622 2328 
Q 3622 1225 3098 567 
Q 2575 -91 1691 -91 
Q 1453 -91 1209 -44 
Q 966 3 703 97 
z
M 1959 2075 
Q 2384 2075 2632 2365 
Q 2881 2656 2881 3163 
Q 2881 3666 2632 3958 
Q 2384 4250 1959 4250 
Q 1534 4250 1286 3958 
Q 1038 3666 1038 3163 
Q 1038 2656 1286 2365 
Q 1534 2075 1959 2075 
z
" transform="scale(0.015625)"/>
       </defs>
       <use xlink:href="#DejaVuSans-39"/>
       <use xlink:href="#DejaVuSans-30" x="63.623047"/>
      </g>
     </g>
    </g>
    <g id="ytick_6">
     <g id="line2d_23">
      <path d="M 54 44.348995 
L 388.8 44.348995 
" clip-path="url(#pc7ce4d0e1a)" style="fill: none; stroke: #b0b0b0; stroke-width: 0.8; stroke-linecap: square"/>
     </g>
     <g id="line2d_24">
      <g>
       <use xlink:href="#m9b587a40dd" x="54" y="44.348995" style="stroke: #000000; stroke-width: 0.8"/>
      </g>
     </g>
     <g id="text_12">
      <!-- 100 -->
      <g transform="translate(27.9125 48.148214)scale(0.1 -0.1)">
       <use xlink:href="#DejaVuSans-31"/>
       <use xlink:href="#DejaVuSans-30" x="63.623047"/>
       <use xlink:href="#DejaVuSans-30" x="127.246094"/>
      </g>
     </g>
    </g>
    <g id="text_13">
     <!-- Accuracy -->
     <g transform="translate(21.832812 166.108125)rotate(-90)scale(0.1 -0.1)">
      <defs>
       <path id="DejaVuSans-41" d="M 2188 4044 
L 1331 1722 
L 3047 1722 
L 2188 4044 
z
M 1831 4666 
L 2547 4666 
L 4325 0 
L 3669 0 
L 3244 1197 
L 1141 1197 
L 716 0 
L 50 0 
L 1831 4666 
z
" transform="scale(0.015625)"/>
       <path id="DejaVuSans-63" d="M 3122 3366 
L 3122 2828 
Q 2878 2963 2633 3030 
Q 2388 3097 2138 3097 
Q 1578 3097 1268 2742 
Q 959 2388 959 1747 
Q 959 1106 1268 751 
Q 1578 397 2138 397 
Q 2388 397 2633 464 
Q 2878 531 3122 666 
L 3122 134 
Q 2881 22 2623 -34 
Q 2366 -91 2075 -91 
Q 1284 -91 818 406 
Q 353 903 353 1747 
Q 353 2603 823 3093 
Q 1294 3584 2113 3584 
Q 2378 3584 2631 3529 
Q 2884 3475 3122 3366 
z
" transform="scale(0.015625)"/>
       <path id="DejaVuSans-75" d="M 544 1381 
L 544 3500 
L 1119 3500 
L 1119 1403 
Q 1119 906 1312 657 
Q 1506 409 1894 409 
Q 2359 409 2629 706 
Q 2900 1003 2900 1516 
L 2900 3500 
L 3475 3500 
L 3475 0 
L 2900 0 
L 2900 538 
Q 2691 219 2414 64 
Q 2138 -91 1772 -91 
Q 1169 -91 856 284 
Q 544 659 544 1381 
z
M 1991 3584 
L 1991 3584 
z
" transform="scale(0.015625)"/>
       <path id="DejaVuSans-72" d="M 2631 2963 
Q 2534 3019 2420 3045 
Q 2306 3072 2169 3072 
Q 1681 3072 1420 2755 
Q 1159 2438 1159 1844 
L 1159 0 
L 581 0 
L 581 3500 
L 1159 3500 
L 1159 2956 
Q 1341 3275 1631 3429 
Q 1922 3584 2338 3584 
Q 2397 3584 2469 3576 
Q 2541 3569 2628 3553 
L 2631 2963 
z
" transform="scale(0.015625)"/>
       <path id="DejaVuSans-61" d="M 2194 1759 
Q 1497 1759 1228 1600 
Q 959 1441 959 1056 
Q 959 750 1161 570 
Q 1363 391 1709 391 
Q 2188 391 2477 730 
Q 2766 1069 2766 1631 
L 2766 1759 
L 2194 1759 
z
M 3341 1997 
L 3341 0 
L 2766 0 
L 2766 531 
Q 2569 213 2275 61 
Q 1981 -91 1556 -91 
Q 1019 -91 701 211 
Q 384 513 384 1019 
Q 384 1609 779 1909 
Q 1175 2209 1959 2209 
L 2766 2209 
L 2766 2266 
Q 2766 2663 2505 2880 
Q 2244 3097 1772 3097 
Q 1472 3097 1187 3025 
Q 903 2953 641 2809 
L 641 3341 
Q 956 3463 1253 3523 
Q 1550 3584 1831 3584 
Q 2591 3584 2966 3190 
Q 3341 2797 3341 1997 
z
" transform="scale(0.015625)"/>
       <path id="DejaVuSans-79" d="M 2059 -325 
Q 1816 -950 1584 -1140 
Q 1353 -1331 966 -1331 
L 506 -1331 
L 506 -850 
L 844 -850 
Q 1081 -850 1212 -737 
Q 1344 -625 1503 -206 
L 1606 56 
L 191 3500 
L 800 3500 
L 1894 763 
L 2988 3500 
L 3597 3500 
L 2059 -325 
z
" transform="scale(0.015625)"/>
      </defs>
      <use xlink:href="#DejaVuSans-41"/>
      <use xlink:href="#DejaVuSans-63" x="66.658203"/>
      <use xlink:href="#DejaVuSans-63" x="121.638672"/>
      <use xlink:href="#DejaVuSans-75" x="176.619141"/>
      <use xlink:href="#DejaVuSans-72" x="239.998047"/>
      <use xlink:href="#DejaVuSans-61" x="281.111328"/>
      <use xlink:href="#DejaVuSans-63" x="342.390625"/>
      <use xlink:href="#DejaVuSans-79" x="397.371094"/>
     </g>
    </g>
   </g>
   <g id="line2d_25">
    <path d="M 69.218182 230.082996 
L 70.324959 167.585473 
L 71.431736 144.903781 
L 72.538512 130.958917 
L 73.645289 122.303409 
L 74.752066 117.60939 
L 75.858843 111.817764 
L 78.072397 106.23612 
L 79.179174 104.413244 
L 80.28595 101.980252 
L 81.392727 101.136493 
L 82.499504 99.755056 
L 83.606281 98.958642 
L 84.713058 97.974919 
L 85.819835 97.266708 
L 86.926612 96.302745 
L 88.033388 95.500879 
L 89.140165 95.13761 
L 90.246942 93.787799 
L 91.353719 93.860894 
L 92.460496 93.330758 
L 93.567273 92.362472 
L 94.67405 92.24417 
L 95.780826 91.699138 
L 96.887603 91.93513 
L 97.99438 91.692465 
L 99.101157 90.320121 
L 100.207934 90.491664 
L 102.421488 89.973722 
L 103.528264 89.389029 
L 104.635041 89.295727 
L 105.741818 89.658502 
L 106.848595 89.57965 
L 107.955372 88.891951 
L 109.062149 88.656429 
L 110.168926 89.042418 
L 111.275702 88.206319 
L 112.382479 88.264307 
L 113.489256 87.924205 
L 114.596033 88.695291 
L 115.70281 88.2074 
L 116.809587 88.537893 
L 117.916364 86.726576 
L 119.02314 88.034729 
L 120.129917 86.826903 
L 121.236694 87.175605 
L 122.343471 87.334319 
L 123.450248 86.575756 
L 124.557025 87.016421 
L 126.770579 86.55259 
L 127.877355 86.647701 
L 128.984132 87.049056 
L 130.090909 87.331641 
L 132.304463 86.3228 
L 133.41124 86.324375 
L 134.518017 87.221351 
L 135.624793 86.116672 
L 136.73157 86.448738 
L 137.838347 85.708361 
L 138.945124 86.914143 
L 140.051901 85.952835 
L 141.158678 85.937445 
L 142.265455 85.5828 
L 143.372231 85.543374 
L 144.479008 86.883575 
L 145.585785 85.620651 
L 146.692562 85.954198 
L 147.799339 85.730706 
L 148.906116 86.497139 
L 150.012893 86.022618 
L 151.119669 85.249253 
L 152.226446 85.370233 
L 153.333223 86.395966 
L 154.44 85.597484 
L 155.546777 84.999563 
L 156.653554 85.259708 
L 157.760331 86.812453 
L 158.867107 85.888316 
L 161.080661 84.919606 
L 162.187438 85.984508 
L 163.294215 85.149537 
L 164.400992 85.117629 
L 165.507769 84.834951 
L 167.721322 84.739206 
L 168.828099 85.290018 
L 169.934876 85.282029 
L 171.041653 84.226221 
L 172.14843 85.433578 
L 174.361983 84.864274 
L 175.46876 84.028433 
L 176.575537 84.518016 
L 177.682314 85.155857 
L 178.789091 85.141031 
L 179.895868 84.243209 
L 181.002645 83.832008 
L 182.109421 85.09458 
L 183.216198 84.021291 
L 184.322975 84.046643 
L 185.429752 84.432115 
L 186.536529 85.377023 
L 187.643306 84.567381 
L 188.750083 84.912816 
L 189.85686 83.950568 
L 190.963636 84.50951 
L 192.070413 84.716391 
L 193.17719 84.060717 
L 194.283967 84.580233 
L 195.390744 84.802903 
L 196.497521 84.295863 
L 198.711074 84.250234 
L 200.924628 83.20279 
L 202.031405 83.603676 
L 203.138182 84.345251 
L 204.244959 84.162877 
L 205.351736 83.807267 
L 206.458512 83.697824 
L 207.565289 84.100777 
L 208.672066 84.113982 
L 210.88562 83.389887 
L 211.992397 84.171006 
L 213.099174 84.349621 
L 215.312727 83.430676 
L 216.419504 83.792465 
L 217.526281 83.790632 
L 218.633058 84.258129 
L 219.739835 83.185074 
L 220.846612 84.123803 
L 221.953388 83.548978 
L 223.060165 83.919248 
L 224.166942 83.233006 
L 225.273719 84.172369 
L 226.380496 83.894249 
L 227.487273 82.973636 
L 228.59405 83.689694 
L 229.700826 84.093 
L 230.807603 84.242974 
L 231.91438 82.499701 
L 233.021157 83.943285 
L 234.127934 84.140931 
L 235.234711 67.52861 
L 236.341488 59.556313 
L 238.555041 55.826399 
L 239.661818 54.289748 
L 241.875372 52.271692 
L 246.302479 49.985972 
L 247.409256 50.056201 
L 249.62281 48.95272 
L 250.729587 49.141861 
L 251.836364 48.788061 
L 252.94314 48.219908 
L 254.049917 48.346551 
L 255.156694 48.354304 
L 257.370248 48.062627 
L 258.477025 48.054498 
L 259.583802 47.667944 
L 260.690579 48.203767 
L 261.797355 47.762492 
L 262.904132 48.228132 
L 264.010909 48.070146 
L 265.117686 48.125267 
L 266.224463 47.967869 
L 267.33124 47.629012 
L 268.438017 48.078416 
L 269.544793 48.078534 
L 270.65157 48.440346 
L 271.758347 48.33102 
L 272.865124 48.519457 
L 273.971901 48.054615 
L 275.078678 48.510599 
L 276.185455 48.400427 
L 277.292231 48.527563 
L 278.399008 48.961225 
L 279.505785 49.07962 
L 280.612562 48.929882 
L 281.719339 48.992286 
L 282.826116 48.882584 
L 283.932893 49.056313 
L 285.039669 49.347167 
L 286.146446 49.261008 
L 287.253223 49.434031 
L 288.36 49.449938 
L 289.466777 49.993114 
L 290.573554 49.749627 
L 291.680331 49.852398 
L 292.787107 50.379668 
L 293.893884 50.230187 
L 296.107438 50.347901 
L 297.214215 49.875306 
L 298.320992 50.002231 
L 299.427769 50.458778 
L 300.534545 50.151218 
L 302.748099 50.703863 
L 303.854876 50.325322 
L 304.961653 50.183243 
L 306.06843 50.883818 
L 307.175207 49.94617 
L 308.281983 49.884282 
L 309.38876 49.693801 
L 310.495537 51.074651 
L 311.602314 49.946405 
L 312.709091 50.435729 
L 313.815868 51.530752 
L 316.029421 50.467025 
L 317.136198 49.655926 
L 318.242975 47.611907 
L 319.349752 45.925165 
L 320.456529 45.523457 
L 323.77686 45.153046 
L 324.883636 45.160423 
L 325.990413 44.932208 
L 330.417521 44.869381 
L 331.524298 44.766727 
L 334.844628 44.861369 
L 335.951405 44.711653 
L 340.378512 44.759091 
L 342.592066 44.632895 
L 345.912397 44.632778 
L 348.12595 44.601246 
L 349.232727 44.664333 
L 352.553058 44.554043 
L 353.659835 44.680216 
L 361.407273 44.553926 
L 363.620826 44.522488 
L 366.941157 44.443636 
L 368.047934 44.577586 
L 372.475041 44.506723 
L 373.581818 44.569809 
L 373.581818 44.569809 
" clip-path="url(#pc7ce4d0e1a)" style="fill: none; stroke: #ff6347; stroke-width: 2; stroke-linecap: square"/>
   </g>
   <g id="line2d_26">
    <path d="M 69.218182 200.568266 
L 70.324959 203.248788 
L 71.431736 177.941503 
L 72.538512 167.258833 
L 73.645289 186.889718 
L 74.752066 142.858195 
L 75.858843 176.167628 
L 76.96562 171.516133 
L 78.072397 175.103303 
L 80.28595 141.163158 
L 81.392727 145.696395 
L 82.499504 155.630096 
L 83.606281 126.104929 
L 84.713058 149.047048 
L 85.819835 138.995089 
L 86.926612 153.422607 
L 88.033388 141.478514 
L 89.140165 171.319036 
L 90.246942 178.059761 
L 91.353719 138.482636 
L 92.460496 179.873056 
L 93.567273 138.797992 
L 94.67405 163.119791 
L 95.780826 126.853899 
L 96.887603 145.420459 
L 97.99438 167.061735 
L 99.101157 159.177846 
L 100.207934 125.631896 
L 101.314711 141.75445 
L 102.421488 146.524203 
L 103.528264 139.271025 
L 104.635041 147.273173 
L 105.741818 134.501272 
L 106.848595 167.692447 
L 107.955372 114.830967 
L 109.062149 179.084667 
L 110.168926 125.947252 
L 111.275702 144.356134 
L 112.382479 150.269051 
L 113.489256 178.059761 
L 114.596033 121.80821 
L 115.70281 125.868413 
L 116.809587 148.298078 
L 117.916364 151.885248 
L 119.02314 118.851751 
L 120.129917 161.464174 
L 121.236694 169.58458 
L 122.343471 157.679907 
L 123.450248 154.802287 
L 124.557025 136.314566 
L 125.663802 127.997063 
L 126.770579 129.140227 
L 127.877355 165.879152 
L 128.984132 169.702838 
L 130.090909 142.306322 
L 131.197686 187.835784 
L 132.304463 138.443217 
L 133.41124 135.32908 
L 134.518017 140.059414 
L 135.624793 147.154914 
L 136.73157 128.982549 
L 137.838347 155.038804 
L 138.945124 143.331228 
L 140.051901 160.912302 
L 141.158678 134.65895 
L 142.265455 154.210996 
L 143.372231 122.990793 
L 144.479008 158.15294 
L 145.585785 169.58458 
L 146.692562 157.049196 
L 147.799339 123.030213 
L 148.906116 194.064057 
L 150.012893 167.928963 
L 151.119669 151.096859 
L 152.226446 150.34789 
L 153.333223 176.088789 
L 154.44 154.644609 
L 155.546777 159.020168 
L 156.653554 137.418311 
L 157.760331 171.75265 
L 158.867107 152.713057 
L 159.973884 151.01802 
L 161.080661 242.116364 
L 162.187438 208.530994 
L 163.294215 190.831662 
L 164.400992 128.90371 
L 165.507769 130.401649 
L 166.614545 125.947252 
L 167.721322 142.937034 
L 168.828099 136.117469 
L 169.934876 165.248441 
L 171.041653 179.794217 
L 172.14843 135.644436 
L 173.255207 173.605364 
L 174.361983 121.76879 
L 175.46876 164.775408 
L 176.575537 148.140401 
L 177.682314 147.785626 
L 178.789091 182.868934 
L 179.895868 158.86249 
L 181.002645 173.526525 
L 182.109421 172.42278 
L 183.216198 184.997584 
L 184.322975 123.148471 
L 185.429752 165.800313 
L 186.536529 118.970009 
L 187.643306 117.905684 
L 188.750083 133.634044 
L 189.85686 132.806236 
L 190.963636 136.827019 
L 192.070413 158.271199 
L 193.17719 147.588528 
L 194.283967 141.636192 
L 195.390744 146.957817 
L 196.497521 177.034856 
L 197.604298 150.505567 
L 198.711074 137.142375 
L 199.817851 153.935059 
L 202.031405 143.055292 
L 203.138182 131.663072 
L 204.244959 145.183942 
L 205.351736 198.006002 
L 206.458512 160.28159 
L 207.565289 198.045421 
L 208.672066 163.671663 
L 209.778843 164.184116 
L 210.88562 136.432825 
L 211.992397 124.449313 
L 213.099174 130.717005 
L 214.20595 131.899588 
L 215.312727 146.76072 
L 216.419504 175.142722 
L 217.526281 138.640314 
L 218.633058 149.914276 
L 219.739835 145.656975 
L 220.846612 176.995436 
L 221.953388 141.281417 
L 223.060165 122.084146 
L 224.166942 164.854246 
L 225.273719 134.895466 
L 226.380496 129.297905 
L 227.487273 130.007455 
L 228.59405 149.047048 
L 229.700826 123.779182 
L 230.807603 134.146497 
L 231.91438 141.636192 
L 233.021157 148.061562 
L 234.127934 136.708761 
L 235.234711 78.762173 
L 236.341488 77.343073 
L 237.448264 76.870039 
L 238.555041 75.214423 
L 239.661818 76.554684 
L 241.875372 75.687456 
L 242.982149 75.648037 
L 244.088926 74.977906 
L 245.195702 75.963392 
L 246.302479 75.608617 
L 247.409256 76.357587 
L 248.516033 74.347195 
L 249.62281 75.450939 
L 250.729587 76.909459 
L 251.836364 76.988298 
L 252.94314 76.042231 
L 254.049917 76.672942 
L 255.156694 77.816106 
L 256.263471 77.027717 
L 257.370248 77.067137 
L 258.477025 77.973784 
L 259.583802 77.776687 
L 260.690579 85.029865 
L 261.797355 78.170881 
L 262.904132 79.353465 
L 264.010909 78.604495 
L 265.117686 79.826498 
L 266.224463 79.747659 
L 267.33124 74.386614 
L 268.438017 79.747659 
L 269.544793 79.747659 
L 270.65157 81.758051 
L 271.758347 79.195787 
L 272.865124 79.66882 
L 273.971901 79.550562 
L 275.078678 82.270504 
L 276.185455 83.334829 
L 277.292231 79.274626 
L 278.399008 78.565076 
L 279.505785 77.500751 
L 280.612562 85.857673 
L 281.719339 78.801592 
L 282.826116 83.177151 
L 283.932893 84.832768 
L 285.039669 88.577615 
L 286.146446 82.743537 
L 287.253223 84.635671 
L 288.36 84.517412 
L 289.466777 85.38464 
L 290.573554 85.345221 
L 291.680331 95.042405 
L 292.787107 83.019473 
L 293.893884 92.874335 
L 295.000661 84.083798 
L 296.107438 85.621157 
L 297.214215 85.897093 
L 298.320992 80.930243 
L 299.427769 82.901215 
L 300.534545 83.21657 
L 301.641322 82.54644 
L 302.748099 83.650184 
L 303.854876 94.175177 
L 304.961653 87.828646 
L 306.06843 87.907485 
L 307.175207 82.743537 
L 308.281983 88.617035 
L 309.38876 89.208327 
L 310.495537 94.372274 
L 311.602314 82.467601 
L 312.709091 92.992593 
L 313.815868 96.146149 
L 314.922645 98.274799 
L 316.029421 87.276774 
L 317.136198 83.768443 
L 318.242975 74.504873 
L 319.349752 73.677064 
L 320.456529 73.204031 
L 321.563306 73.637645 
L 322.670083 73.677064 
L 325.990413 73.440547 
L 328.203967 73.716484 
L 329.310744 73.440547 
L 330.417521 73.558806 
L 331.524298 73.440547 
L 332.631074 73.637645 
L 333.737851 73.558806 
L 334.844628 73.361709 
L 335.951405 72.888675 
L 337.058182 72.967514 
L 338.164959 72.928095 
L 339.271736 73.834742 
L 340.378512 72.967514 
L 341.485289 73.085772 
L 342.592066 73.558806 
L 343.698843 72.809836 
L 344.80562 73.125192 
L 345.912397 73.085772 
L 347.019174 73.28287 
L 348.12595 72.809836 
L 349.232727 73.440547 
L 350.339504 72.967514 
L 351.446281 73.006934 
L 352.553058 73.164611 
L 353.659835 72.57332 
L 354.766612 72.139706 
L 355.873388 72.849256 
L 356.980165 72.770417 
L 358.086942 73.204031 
L 359.193719 72.888675 
L 362.51405 73.085772 
L 363.620826 72.5339 
L 366.941157 73.006934 
L 368.047934 72.139706 
L 369.154711 72.297384 
L 370.261488 72.218545 
L 371.368264 71.86377 
L 372.475041 72.100286 
L 373.581818 72.060867 
L 373.581818 72.060867 
" clip-path="url(#pc7ce4d0e1a)" style="fill: none; stroke: #4682b4; stroke-width: 2; stroke-linecap: square"/>
   </g>
   <g id="patch_3">
    <path d="M 54 252 
L 54 34.56 
" style="fill: none; stroke: #000000; stroke-width: 0.8; stroke-linejoin: miter; stroke-linecap: square"/>
   </g>
   <g id="patch_4">
    <path d="M 388.8 252 
L 388.8 34.56 
" style="fill: none; stroke: #000000; stroke-width: 0.8; stroke-linejoin: miter; stroke-linecap: square"/>
   </g>
   <g id="patch_5">
    <path d="M 54 252 
L 388.8 252 
" style="fill: none; stroke: #000000; stroke-width: 0.8; stroke-linejoin: miter; stroke-linecap: square"/>
   </g>
   <g id="patch_6">
    <path d="M 54 34.56 
L 388.8 34.56 
" style="fill: none; stroke: #000000; stroke-width: 0.8; stroke-linejoin: miter; stroke-linecap: square"/>
   </g>
   <g id="legend_1">
    <g id="patch_7">
     <path d="M 61 72.4725 
L 138.4 72.4725 
Q 140.4 72.4725 140.4 70.4725 
L 140.4 41.56 
Q 140.4 39.56 138.4 39.56 
L 61 39.56 
Q 59 39.56 59 41.56 
L 59 70.4725 
Q 59 72.4725 61 72.4725 
z
" style="fill: #ffffff; opacity: 0.8; stroke: #cccccc; stroke-linejoin: miter"/>
    </g>
    <g id="line2d_27">
     <path d="M 63 47.658437 
L 73 47.658437 
L 83 47.658437 
" style="fill: none; stroke: #ff6347; stroke-width: 2; stroke-linecap: square"/>
    </g>
    <g id="text_14">
     <!-- train_acc -->
     <g transform="translate(91 51.158437)scale(0.1 -0.1)">
      <defs>
       <path id="DejaVuSans-74" d="M 1172 4494 
L 1172 3500 
L 2356 3500 
L 2356 3053 
L 1172 3053 
L 1172 1153 
Q 1172 725 1289 603 
Q 1406 481 1766 481 
L 2356 481 
L 2356 0 
L 1766 0 
Q 1100 0 847 248 
Q 594 497 594 1153 
L 594 3053 
L 172 3053 
L 172 3500 
L 594 3500 
L 594 4494 
L 1172 4494 
z
" transform="scale(0.015625)"/>
       <path id="DejaVuSans-69" d="M 603 3500 
L 1178 3500 
L 1178 0 
L 603 0 
L 603 3500 
z
M 603 4863 
L 1178 4863 
L 1178 4134 
L 603 4134 
L 603 4863 
z
" transform="scale(0.015625)"/>
       <path id="DejaVuSans-6e" d="M 3513 2113 
L 3513 0 
L 2938 0 
L 2938 2094 
Q 2938 2591 2744 2837 
Q 2550 3084 2163 3084 
Q 1697 3084 1428 2787 
Q 1159 2491 1159 1978 
L 1159 0 
L 581 0 
L 581 3500 
L 1159 3500 
L 1159 2956 
Q 1366 3272 1645 3428 
Q 1925 3584 2291 3584 
Q 2894 3584 3203 3211 
Q 3513 2838 3513 2113 
z
" transform="scale(0.015625)"/>
       <path id="DejaVuSans-5f" d="M 3263 -1063 
L 3263 -1509 
L -63 -1509 
L -63 -1063 
L 3263 -1063 
z
" transform="scale(0.015625)"/>
      </defs>
      <use xlink:href="#DejaVuSans-74"/>
      <use xlink:href="#DejaVuSans-72" x="39.208984"/>
      <use xlink:href="#DejaVuSans-61" x="80.322266"/>
      <use xlink:href="#DejaVuSans-69" x="141.601562"/>
      <use xlink:href="#DejaVuSans-6e" x="169.384766"/>
      <use xlink:href="#DejaVuSans-5f" x="232.763672"/>
      <use xlink:href="#DejaVuSans-61" x="282.763672"/>
      <use xlink:href="#DejaVuSans-63" x="344.042969"/>
      <use xlink:href="#DejaVuSans-63" x="399.023438"/>
     </g>
    </g>
    <g id="line2d_28">
     <path d="M 63 62.614688 
L 73 62.614688 
L 83 62.614688 
" style="fill: none; stroke: #4682b4; stroke-width: 2; stroke-linecap: square"/>
    </g>
    <g id="text_15">
     <!-- test_acc -->
     <g transform="translate(91 66.114688)scale(0.1 -0.1)">
      <defs>
       <path id="DejaVuSans-65" d="M 3597 1894 
L 3597 1613 
L 953 1613 
Q 991 1019 1311 708 
Q 1631 397 2203 397 
Q 2534 397 2845 478 
Q 3156 559 3463 722 
L 3463 178 
Q 3153 47 2828 -22 
Q 2503 -91 2169 -91 
Q 1331 -91 842 396 
Q 353 884 353 1716 
Q 353 2575 817 3079 
Q 1281 3584 2069 3584 
Q 2775 3584 3186 3129 
Q 3597 2675 3597 1894 
z
M 3022 2063 
Q 3016 2534 2758 2815 
Q 2500 3097 2075 3097 
Q 1594 3097 1305 2825 
Q 1016 2553 972 2059 
L 3022 2063 
z
" transform="scale(0.015625)"/>
       <path id="DejaVuSans-73" d="M 2834 3397 
L 2834 2853 
Q 2591 2978 2328 3040 
Q 2066 3103 1784 3103 
Q 1356 3103 1142 2972 
Q 928 2841 928 2578 
Q 928 2378 1081 2264 
Q 1234 2150 1697 2047 
L 1894 2003 
Q 2506 1872 2764 1633 
Q 3022 1394 3022 966 
Q 3022 478 2636 193 
Q 2250 -91 1575 -91 
Q 1294 -91 989 -36 
Q 684 19 347 128 
L 347 722 
Q 666 556 975 473 
Q 1284 391 1588 391 
Q 1994 391 2212 530 
Q 2431 669 2431 922 
Q 2431 1156 2273 1281 
Q 2116 1406 1581 1522 
L 1381 1569 
Q 847 1681 609 1914 
Q 372 2147 372 2553 
Q 372 3047 722 3315 
Q 1072 3584 1716 3584 
Q 2034 3584 2315 3537 
Q 2597 3491 2834 3397 
z
" transform="scale(0.015625)"/>
      </defs>
      <use xlink:href="#DejaVuSans-74"/>
      <use xlink:href="#DejaVuSans-65" x="39.208984"/>
      <use xlink:href="#DejaVuSans-73" x="100.732422"/>
      <use xlink:href="#DejaVuSans-74" x="152.832031"/>
      <use xlink:href="#DejaVuSans-5f" x="192.041016"/>
      <use xlink:href="#DejaVuSans-61" x="242.041016"/>
      <use xlink:href="#DejaVuSans-63" x="303.320312"/>
      <use xlink:href="#DejaVuSans-63" x="358.300781"/>
     </g>
    </g>
   </g>
  </g>
  <g id="axes_2">
   <g id="matplotlib.axis_3">
    <g id="ytick_7">
     <g id="line2d_29">
      <defs>
       <path id="m3b992245d4" d="M 0 0 
L 3.5 0 
" style="stroke: #000000; stroke-width: 0.8"/>
      </defs>
      <g>
       <use xlink:href="#m3b992245d4" x="388.8" y="207.159096" style="stroke: #000000; stroke-width: 0.8"/>
      </g>
     </g>
     <g id="text_16">
      <!-- 0.5 -->
      <g transform="translate(395.8 210.958315)scale(0.1 -0.1)">
       <defs>
        <path id="DejaVuSans-2e" d="M 684 794 
L 1344 794 
L 1344 0 
L 684 0 
L 684 794 
z
" transform="scale(0.015625)"/>
       </defs>
       <use xlink:href="#DejaVuSans-30"/>
       <use xlink:href="#DejaVuSans-2e" x="63.623047"/>
       <use xlink:href="#DejaVuSans-35" x="95.410156"/>
      </g>
     </g>
    </g>
    <g id="ytick_8">
     <g id="line2d_30">
      <g>
       <use xlink:href="#m3b992245d4" x="388.8" y="160.939074" style="stroke: #000000; stroke-width: 0.8"/>
      </g>
     </g>
     <g id="text_17">
      <!-- 1.0 -->
      <g transform="translate(395.8 164.738293)scale(0.1 -0.1)">
       <use xlink:href="#DejaVuSans-31"/>
       <use xlink:href="#DejaVuSans-2e" x="63.623047"/>
       <use xlink:href="#DejaVuSans-30" x="95.410156"/>
      </g>
     </g>
    </g>
    <g id="ytick_9">
     <g id="line2d_31">
      <g>
       <use xlink:href="#m3b992245d4" x="388.8" y="114.719051" style="stroke: #000000; stroke-width: 0.8"/>
      </g>
     </g>
     <g id="text_18">
      <!-- 1.5 -->
      <g transform="translate(395.8 118.51827)scale(0.1 -0.1)">
       <use xlink:href="#DejaVuSans-31"/>
       <use xlink:href="#DejaVuSans-2e" x="63.623047"/>
       <use xlink:href="#DejaVuSans-35" x="95.410156"/>
      </g>
     </g>
    </g>
    <g id="ytick_10">
     <g id="line2d_32">
      <g>
       <use xlink:href="#m3b992245d4" x="388.8" y="68.499029" style="stroke: #000000; stroke-width: 0.8"/>
      </g>
     </g>
     <g id="text_19">
      <!-- 2.0 -->
      <g transform="translate(395.8 72.298247)scale(0.1 -0.1)">
       <use xlink:href="#DejaVuSans-32"/>
       <use xlink:href="#DejaVuSans-2e" x="63.623047"/>
       <use xlink:href="#DejaVuSans-30" x="95.410156"/>
      </g>
     </g>
    </g>
    <g id="text_20">
     <!-- Loss -->
     <g transform="translate(423.301562 154.247187)rotate(-90)scale(0.1 -0.1)">
      <defs>
       <path id="DejaVuSans-4c" d="M 628 4666 
L 1259 4666 
L 1259 531 
L 3531 531 
L 3531 0 
L 628 0 
L 628 4666 
z
" transform="scale(0.015625)"/>
       <path id="DejaVuSans-6f" d="M 1959 3097 
Q 1497 3097 1228 2736 
Q 959 2375 959 1747 
Q 959 1119 1226 758 
Q 1494 397 1959 397 
Q 2419 397 2687 759 
Q 2956 1122 2956 1747 
Q 2956 2369 2687 2733 
Q 2419 3097 1959 3097 
z
M 1959 3584 
Q 2709 3584 3137 3096 
Q 3566 2609 3566 1747 
Q 3566 888 3137 398 
Q 2709 -91 1959 -91 
Q 1206 -91 779 398 
Q 353 888 353 1747 
Q 353 2609 779 3096 
Q 1206 3584 1959 3584 
z
" transform="scale(0.015625)"/>
      </defs>
      <use xlink:href="#DejaVuSans-4c"/>
      <use xlink:href="#DejaVuSans-6f" x="53.962891"/>
      <use xlink:href="#DejaVuSans-73" x="115.144531"/>
      <use xlink:href="#DejaVuSans-73" x="167.244141"/>
     </g>
    </g>
   </g>
   <g id="line2d_33">
    <path d="M 69.218182 44.443636 
L 70.324959 102.486488 
L 71.431736 130.046303 
L 72.538512 147.745602 
L 73.645289 159.890868 
L 74.752066 168.022098 
L 75.858843 174.265812 
L 76.96562 178.496346 
L 78.072397 181.319888 
L 80.28595 184.45569 
L 82.499504 186.176617 
L 83.606281 186.293007 
L 84.713058 186.972179 
L 85.819835 186.984444 
L 86.926612 187.394295 
L 88.033388 187.512581 
L 90.246942 188.013564 
L 92.460496 188.112273 
L 93.567273 188.30135 
L 94.67405 188.603345 
L 95.780826 188.603708 
L 96.887603 188.420969 
L 97.99438 188.601003 
L 99.101157 188.576126 
L 101.314711 188.992996 
L 103.528264 189.02162 
L 104.635041 189.233546 
L 105.741818 189.088548 
L 106.848595 189.161862 
L 107.955372 189.371116 
L 109.062149 189.094703 
L 111.275702 189.522802 
L 112.382479 189.853493 
L 113.489256 189.621726 
L 114.596033 189.237606 
L 115.70281 189.807684 
L 116.809587 189.32864 
L 117.916364 189.969987 
L 119.02314 189.459207 
L 120.129917 189.978026 
L 122.343471 189.744419 
L 123.450248 189.955353 
L 124.557025 189.835222 
L 125.663802 190.090251 
L 127.877355 190.213507 
L 128.984132 189.807865 
L 130.090909 189.728485 
L 132.304463 189.933237 
L 133.41124 190.266583 
L 134.518017 189.98909 
L 136.73157 190.059787 
L 137.838347 190.550291 
L 138.945124 189.838776 
L 140.051901 190.298744 
L 141.158678 190.180453 
L 142.265455 190.763385 
L 143.372231 190.746927 
L 144.479008 190.138033 
L 145.585785 190.398792 
L 147.799339 190.495369 
L 148.906116 190.036558 
L 152.226446 190.750954 
L 153.333223 190.452535 
L 154.44 190.511794 
L 155.546777 190.911919 
L 156.653554 190.778746 
L 157.760331 190.04977 
L 158.867107 190.137443 
L 159.973884 190.720265 
L 161.080661 191.019604 
L 162.187438 190.372708 
L 164.400992 190.812929 
L 165.507769 190.826252 
L 166.614545 191.22024 
L 167.721322 191.222863 
L 169.934876 190.620982 
L 171.041653 191.199633 
L 172.14843 190.560501 
L 173.255207 190.933094 
L 174.361983 190.778482 
L 175.46876 191.371899 
L 176.575537 191.03161 
L 178.789091 190.698765 
L 181.002645 191.113982 
L 182.109421 190.9678 
L 185.429752 191.109271 
L 186.536529 190.714584 
L 187.643306 191.042233 
L 188.750083 190.77917 
L 189.85686 191.412176 
L 192.070413 191.174233 
L 193.17719 191.407068 
L 194.283967 191.169737 
L 195.390744 191.082802 
L 196.497521 191.339881 
L 197.604298 191.1608 
L 198.711074 191.200123 
L 199.817851 191.826506 
L 200.924628 192.027483 
L 203.138182 191.501066 
L 204.244959 191.533194 
L 205.351736 191.868513 
L 207.565289 191.496741 
L 208.672066 190.949326 
L 209.778843 191.484107 
L 210.88562 191.414132 
L 211.992397 191.738513 
L 213.099174 191.19285 
L 214.20595 191.774294 
L 216.419504 191.600778 
L 217.526281 191.737213 
L 218.633058 191.367783 
L 219.739835 192.081419 
L 220.846612 191.676489 
L 221.953388 192.033572 
L 223.060165 191.688501 
L 224.166942 192.042889 
L 225.273719 191.57378 
L 226.380496 191.535613 
L 227.487273 192.22926 
L 228.59405 191.70287 
L 229.700826 191.879015 
L 230.807603 191.362934 
L 231.91438 192.407757 
L 233.021157 191.660318 
L 234.127934 191.660064 
L 235.234711 202.336314 
L 236.341488 208.120734 
L 237.448264 210.648425 
L 239.661818 214.475326 
L 241.875372 217.456147 
L 245.195702 220.798613 
L 246.302479 221.830014 
L 247.409256 222.571426 
L 249.62281 224.548114 
L 250.729587 225.048334 
L 252.94314 226.65386 
L 255.156694 227.894451 
L 259.583802 230.149957 
L 260.690579 230.393354 
L 261.797355 231.008873 
L 264.010909 231.687889 
L 267.33124 233.079806 
L 270.65157 233.612297 
L 277.292231 235.146182 
L 278.399008 234.961094 
L 279.505785 235.18846 
L 280.612562 235.537744 
L 281.719339 235.606812 
L 282.826116 235.887482 
L 285.039669 235.813008 
L 287.253223 236.006072 
L 288.36 236.07622 
L 289.466777 235.863142 
L 290.573554 236.126425 
L 293.893884 236.10943 
L 296.107438 236.118134 
L 297.214215 236.490972 
L 298.320992 236.469309 
L 299.427769 236.226354 
L 300.534545 236.377211 
L 301.641322 236.325227 
L 302.748099 235.990592 
L 303.854876 236.456293 
L 304.961653 236.585293 
L 306.06843 236.074843 
L 307.175207 236.778427 
L 309.38876 236.909231 
L 310.495537 236.322793 
L 311.602314 236.847777 
L 312.709091 236.680575 
L 313.815868 235.85403 
L 316.029421 236.438769 
L 317.136198 237.004912 
L 318.242975 238.330406 
L 319.349752 239.384819 
L 320.456529 239.706958 
L 323.77686 240.111992 
L 329.310744 240.507517 
L 333.737851 240.756707 
L 334.844628 240.726151 
L 338.164959 240.972481 
L 339.271736 240.929511 
L 342.592066 241.132329 
L 349.232727 241.343965 
L 368.047934 241.965861 
L 373.581818 242.111994 
L 373.581818 242.111994 
" clip-path="url(#pc7ce4d0e1a)" style="fill: none; stroke-dasharray: 7.4,3.2; stroke-dashoffset: 0; stroke: #ff0000; stroke-width: 2"/>
   </g>
   <g id="line2d_34">
    <path d="M 69.218182 149.996072 
L 70.324959 147.256925 
L 71.431736 161.324784 
L 72.538512 165.28613 
L 73.645289 144.565411 
L 74.752066 181.425662 
L 75.858843 155.964348 
L 76.96562 159.770419 
L 78.072397 158.369383 
L 79.179174 165.67784 
L 80.28595 180.315186 
L 81.392727 180.085001 
L 82.499504 167.43807 
L 83.606281 194.997152 
L 84.713058 178.570901 
L 85.819835 188.312434 
L 86.926612 171.668246 
L 88.033388 186.598901 
L 89.140165 163.395776 
L 90.246942 160.558937 
L 91.353719 185.57786 
L 92.460496 146.566471 
L 93.567273 191.086322 
L 94.67405 163.77989 
L 95.780826 193.140532 
L 96.887603 183.220585 
L 97.99438 163.321733 
L 99.101157 170.422697 
L 100.207934 196.484582 
L 101.314711 184.525058 
L 102.421488 180.144807 
L 103.528264 181.483393 
L 104.635041 180.37551 
L 105.741818 188.476273 
L 106.848595 146.680418 
L 107.955372 203.171484 
L 109.062149 139.268838 
L 110.168926 195.02055 
L 111.275702 180.300141 
L 112.382479 180.815404 
L 113.489256 154.626183 
L 114.596033 199.241873 
L 115.70281 196.511551 
L 116.809587 179.615612 
L 117.916364 168.477933 
L 119.02314 200.566816 
L 120.129917 156.171846 
L 121.236694 145.24947 
L 122.343471 166.036152 
L 123.450248 161.28526 
L 124.557025 187.218612 
L 126.770579 193.820317 
L 127.877355 157.068989 
L 128.984132 157.527754 
L 130.090909 181.334263 
L 131.197686 135.073335 
L 132.304463 187.680798 
L 133.41124 188.864823 
L 134.518017 185.165166 
L 135.624793 176.377101 
L 136.73157 187.60379 
L 137.838347 168.262935 
L 138.945124 182.353164 
L 140.051901 171.45371 
L 141.158678 185.993291 
L 142.265455 173.320366 
L 143.372231 197.437341 
L 144.479008 163.833704 
L 145.585785 160.663142 
L 146.692562 171.301939 
L 147.799339 198.516906 
L 148.906116 122.599211 
L 150.012893 155.26465 
L 151.119669 177.086615 
L 152.226446 178.036832 
L 153.333223 156.313391 
L 154.44 168.155086 
L 155.546777 162.039526 
L 156.653554 188.651527 
L 157.760331 169.731937 
L 158.867107 178.071817 
L 159.973884 180.051473 
L 161.080661 76.322202 
L 162.187438 138.602132 
L 163.294215 146.014589 
L 164.400992 194.123328 
L 165.507769 189.677641 
L 166.614545 195.837939 
L 167.721322 178.499467 
L 168.828099 187.909115 
L 169.934876 156.399129 
L 171.041653 142.47175 
L 172.14843 183.652831 
L 173.255207 139.80036 
L 174.361983 197.960681 
L 175.46876 143.305267 
L 176.575537 174.536862 
L 177.682314 179.253817 
L 178.789091 130.683386 
L 179.895868 148.137524 
L 181.002645 146.232677 
L 182.109421 149.080126 
L 183.216198 154.196243 
L 184.322975 197.241303 
L 185.429752 165.672323 
L 186.536529 199.945359 
L 187.643306 199.793988 
L 188.750083 189.111936 
L 189.85686 193.484716 
L 190.963636 188.889666 
L 192.070413 174.659792 
L 193.17719 177.039904 
L 194.283967 186.950649 
L 195.390744 180.349239 
L 196.497521 155.774211 
L 197.604298 172.460014 
L 198.711074 191.91775 
L 199.817851 177.211719 
L 200.924628 179.037657 
L 202.031405 172.724701 
L 203.138182 192.405044 
L 204.244959 177.369223 
L 205.351736 138.652166 
L 206.458512 153.997115 
L 207.565289 127.759196 
L 208.672066 156.412982 
L 209.778843 163.203308 
L 210.88562 187.059623 
L 211.992397 196.168067 
L 213.099174 195.041884 
L 214.20595 190.851856 
L 215.312727 185.762572 
L 216.419504 152.782395 
L 217.526281 180.57893 
L 218.633058 178.792739 
L 219.739835 174.84533 
L 220.846612 148.32759 
L 221.953388 187.746606 
L 223.060165 196.993976 
L 224.166942 156.771729 
L 225.273719 179.646678 
L 226.380496 189.732045 
L 227.487273 190.225574 
L 228.59405 172.840525 
L 229.700826 194.470563 
L 230.807603 188.294007 
L 231.91438 177.65764 
L 233.021157 175.513972 
L 234.127934 181.766572 
L 235.234711 228.809645 
L 236.341488 229.157693 
L 237.448264 229.679921 
L 238.555041 229.848943 
L 239.661818 228.873355 
L 240.768595 228.630318 
L 241.875372 228.51695 
L 242.982149 227.569144 
L 244.088926 228.164483 
L 245.195702 226.556531 
L 246.302479 225.827188 
L 247.409256 226.409089 
L 248.516033 227.351904 
L 250.729587 224.310108 
L 251.836364 224.237478 
L 252.94314 225.345972 
L 254.049917 224.498092 
L 255.156694 223.419603 
L 256.263471 223.439545 
L 257.370248 223.20498 
L 258.477025 222.648041 
L 259.583802 222.846191 
L 260.690579 214.810991 
L 261.797355 221.591407 
L 262.904132 220.76975 
L 264.010909 223.243008 
L 265.117686 220.29303 
L 266.224463 221.125771 
L 267.33124 224.377823 
L 268.438017 220.341144 
L 269.544793 220.990823 
L 270.65157 217.869232 
L 271.758347 220.671643 
L 272.865124 221.182076 
L 273.971901 222.184368 
L 275.078678 217.747425 
L 276.185455 217.587749 
L 277.292231 220.612164 
L 278.399008 223.146665 
L 279.505785 223.377286 
L 280.612562 214.546662 
L 281.719339 221.615678 
L 282.826116 217.895787 
L 283.932893 214.695303 
L 285.039669 210.752575 
L 286.146446 217.69938 
L 287.253223 215.44257 
L 288.36 214.933829 
L 289.466777 218.101288 
L 290.573554 213.547972 
L 291.680331 205.137675 
L 292.787107 219.076132 
L 293.893884 204.498808 
L 295.000661 217.552972 
L 296.107438 214.11524 
L 297.214215 215.765605 
L 298.320992 221.649612 
L 299.427769 221.350759 
L 300.534545 217.007306 
L 301.641322 218.499263 
L 302.748099 218.61863 
L 303.854876 207.80039 
L 304.961653 212.40647 
L 306.06843 214.318817 
L 307.175207 217.815264 
L 308.281983 212.329636 
L 309.38876 211.617315 
L 310.495537 207.970138 
L 311.602314 217.383526 
L 312.709091 198.36356 
L 313.815868 207.202458 
L 314.922645 196.719367 
L 316.029421 212.269388 
L 317.136198 220.732455 
L 318.242975 226.634305 
L 319.349752 226.835326 
L 320.456529 226.587121 
L 322.670083 226.880995 
L 324.883636 226.572437 
L 325.990413 226.40379 
L 328.203967 226.386428 
L 329.310744 226.531029 
L 330.417521 226.205261 
L 331.524298 226.506753 
L 332.631074 226.284645 
L 333.737851 226.451455 
L 334.844628 226.13196 
L 335.951405 226.800936 
L 337.058182 226.628636 
L 338.164959 226.601195 
L 339.271736 225.947735 
L 340.378512 226.161482 
L 342.592066 225.911319 
L 343.698843 226.278958 
L 344.80562 225.947928 
L 345.912397 226.389946 
L 347.019174 226.188237 
L 348.12595 226.346578 
L 349.232727 225.879976 
L 350.339504 226.115136 
L 351.446281 225.848288 
L 352.553058 225.803579 
L 353.659835 226.011527 
L 354.766612 226.101638 
L 355.873388 225.93341 
L 356.980165 226.196066 
L 358.086942 225.73431 
L 359.193719 225.843159 
L 360.300496 225.73048 
L 361.407273 226.171935 
L 362.51405 225.715133 
L 363.620826 226.164959 
L 364.727603 226.205854 
L 365.83438 225.7198 
L 366.941157 225.946573 
L 368.047934 225.890973 
L 369.154711 226.176734 
L 370.261488 225.906907 
L 371.368264 226.091216 
L 373.581818 226.057044 
L 373.581818 226.057044 
" clip-path="url(#pc7ce4d0e1a)" style="fill: none; stroke-dasharray: 7.4,3.2; stroke-dashoffset: 0; stroke: #008000; stroke-width: 2"/>
   </g>
   <g id="patch_8">
    <path d="M 54 252 
L 54 34.56 
" style="fill: none; stroke: #000000; stroke-width: 0.8; stroke-linejoin: miter; stroke-linecap: square"/>
   </g>
   <g id="patch_9">
    <path d="M 388.8 252 
L 388.8 34.56 
" style="fill: none; stroke: #000000; stroke-width: 0.8; stroke-linejoin: miter; stroke-linecap: square"/>
   </g>
   <g id="patch_10">
    <path d="M 54 252 
L 388.8 252 
" style="fill: none; stroke: #000000; stroke-width: 0.8; stroke-linejoin: miter; stroke-linecap: square"/>
   </g>
   <g id="patch_11">
    <path d="M 54 34.56 
L 388.8 34.56 
" style="fill: none; stroke: #000000; stroke-width: 0.8; stroke-linejoin: miter; stroke-linecap: square"/>
   </g>
   <g id="legend_2">
    <g id="patch_12">
     <path d="M 288.567188 71.91625 
L 381.8 71.91625 
Q 383.8 71.91625 383.8 69.91625 
L 383.8 41.56 
Q 383.8 39.56 381.8 39.56 
L 288.567188 39.56 
Q 286.567188 39.56 286.567188 41.56 
L 286.567188 69.91625 
Q 286.567188 71.91625 288.567188 71.91625 
z
" style="fill: #ffffff; opacity: 0.8; stroke: #cccccc; stroke-linejoin: miter"/>
    </g>
    <g id="line2d_35">
     <path d="M 290.567188 47.658437 
L 300.567188 47.658437 
L 310.567188 47.658437 
" style="fill: none; stroke-dasharray: 7.4,3.2; stroke-dashoffset: 0; stroke: #ff0000; stroke-width: 2"/>
    </g>
    <g id="text_21">
     <!-- training loss -->
     <g transform="translate(318.567188 51.158437)scale(0.1 -0.1)">
      <defs>
       <path id="DejaVuSans-67" d="M 2906 1791 
Q 2906 2416 2648 2759 
Q 2391 3103 1925 3103 
Q 1463 3103 1205 2759 
Q 947 2416 947 1791 
Q 947 1169 1205 825 
Q 1463 481 1925 481 
Q 2391 481 2648 825 
Q 2906 1169 2906 1791 
z
M 3481 434 
Q 3481 -459 3084 -895 
Q 2688 -1331 1869 -1331 
Q 1566 -1331 1297 -1286 
Q 1028 -1241 775 -1147 
L 775 -588 
Q 1028 -725 1275 -790 
Q 1522 -856 1778 -856 
Q 2344 -856 2625 -561 
Q 2906 -266 2906 331 
L 2906 616 
Q 2728 306 2450 153 
Q 2172 0 1784 0 
Q 1141 0 747 490 
Q 353 981 353 1791 
Q 353 2603 747 3093 
Q 1141 3584 1784 3584 
Q 2172 3584 2450 3431 
Q 2728 3278 2906 2969 
L 2906 3500 
L 3481 3500 
L 3481 434 
z
" transform="scale(0.015625)"/>
       <path id="DejaVuSans-20" transform="scale(0.015625)"/>
       <path id="DejaVuSans-6c" d="M 603 4863 
L 1178 4863 
L 1178 0 
L 603 0 
L 603 4863 
z
" transform="scale(0.015625)"/>
      </defs>
      <use xlink:href="#DejaVuSans-74"/>
      <use xlink:href="#DejaVuSans-72" x="39.208984"/>
      <use xlink:href="#DejaVuSans-61" x="80.322266"/>
      <use xlink:href="#DejaVuSans-69" x="141.601562"/>
      <use xlink:href="#DejaVuSans-6e" x="169.384766"/>
      <use xlink:href="#DejaVuSans-69" x="232.763672"/>
      <use xlink:href="#DejaVuSans-6e" x="260.546875"/>
      <use xlink:href="#DejaVuSans-67" x="323.925781"/>
      <use xlink:href="#DejaVuSans-20" x="387.402344"/>
      <use xlink:href="#DejaVuSans-6c" x="419.189453"/>
      <use xlink:href="#DejaVuSans-6f" x="446.972656"/>
      <use xlink:href="#DejaVuSans-73" x="508.154297"/>
      <use xlink:href="#DejaVuSans-73" x="560.253906"/>
     </g>
    </g>
    <g id="line2d_36">
     <path d="M 290.567188 62.336562 
L 300.567188 62.336562 
L 310.567188 62.336562 
" style="fill: none; stroke-dasharray: 7.4,3.2; stroke-dashoffset: 0; stroke: #008000; stroke-width: 2"/>
    </g>
    <g id="text_22">
     <!-- test loss -->
     <g transform="translate(318.567188 65.836562)scale(0.1 -0.1)">
      <use xlink:href="#DejaVuSans-74"/>
      <use xlink:href="#DejaVuSans-65" x="39.208984"/>
      <use xlink:href="#DejaVuSans-73" x="100.732422"/>
      <use xlink:href="#DejaVuSans-74" x="152.832031"/>
      <use xlink:href="#DejaVuSans-20" x="192.041016"/>
      <use xlink:href="#DejaVuSans-6c" x="223.828125"/>
      <use xlink:href="#DejaVuSans-6f" x="251.611328"/>
      <use xlink:href="#DejaVuSans-73" x="312.792969"/>
      <use xlink:href="#DejaVuSans-73" x="364.892578"/>
     </g>
    </g>
   </g>
  </g>
 </g>
 <defs>
  <clipPath id="pc7ce4d0e1a">
   <rect x="54" y="34.56" width="334.8" height="217.44"/>
  </clipPath>
 </defs>
</svg>
